<?xml version="1.0" encoding="UTF-8" standalone="no"?>
<!-- Created with Inkscape (http://www.inkscape.org/) -->

<svg
   xmlns:dc="http://purl.org/dc/elements/1.1/"
   xmlns:cc="http://creativecommons.org/ns#"
   xmlns:rdf="http://www.w3.org/1999/02/22-rdf-syntax-ns#"
   xmlns:svg="http://www.w3.org/2000/svg"
   xmlns="http://www.w3.org/2000/svg"
   xmlns:sodipodi="http://sodipodi.sourceforge.net/DTD/sodipodi-0.dtd"
   xmlns:inkscape="http://www.inkscape.org/namespaces/inkscape"
   width="210mm"
   height="297mm"
   viewBox="0 0 210 297"
   version="1.1"
   id="svg6833"
   inkscape:version="0.92.1 r15371"
   sodipodi:docname="Descartes_CorpoInteiro.svg">
  <defs
     id="defs6827" />
  <sodipodi:namedview
     id="base"
     pagecolor="#ffffff"
     bordercolor="#666666"
     borderopacity="1.0"
     inkscape:pageopacity="0.0"
     inkscape:pageshadow="2"
     inkscape:zoom="1"
     inkscape:cx="464.22815"
     inkscape:cy="748.00652"
     inkscape:document-units="mm"
     inkscape:current-layer="layer1"
     showgrid="false"
     inkscape:window-width="960"
     inkscape:window-height="983"
     inkscape:window-x="0"
     inkscape:window-y="27"
     inkscape:window-maximized="0" />
  <metadata
     id="metadata6830">
    <rdf:RDF>
      <cc:Work
         rdf:about="">
        <dc:format>image/svg+xml</dc:format>
        <dc:type
           rdf:resource="http://purl.org/dc/dcmitype/StillImage" />
        <dc:title></dc:title>
      </cc:Work>
    </rdf:RDF>
  </metadata>
  <g
     inkscape:label="Camada 1"
     inkscape:groupmode="layer"
     id="layer1">
    <path
       style="fill:#030303;fill-opacity:1;fill-rule:evenodd;stroke:#000000;stroke-width:0.10111545px;stroke-linecap:butt;stroke-linejoin:miter;stroke-opacity:1"
       d="m 68.923245,66.350816 c -4.189065,1.588954 -4.044617,1.300054 -4.044617,1.300054 -1.013522,-0.761238 0.06597,-3.185471 4.17165,-11.558958 6.030365,-12.298844 7.666047,-21.674851 7.666047,-21.674851 0,0 2.454157,-10.538136 14.71569,-5.804419 0,0 12.171005,-8.659521 24.148795,5.52568 10.69191,14.965667 2.89014,21.834415 17.24044,37.33235 2.45566,2.889012 3.03647,6.870792 3.03647,6.870792 0,0 -2.56807,-3.316352 -4.01258,-4.183057 0,0 2.68172,6.803699 -4.97416,12.726178 0,0 2.76209,-9.149958 -1.28253,-4.094185 0.004,-0.0019 -27.026153,40.05009 -55.671471,-1.416718 0,0 -3.024754,0.301967 -1.427083,4.911322 0,0 -9.389295,-3.177912 0.433349,-19.934188"
       id="path46"
       inkscape:connector-curvature="0"
       sodipodi:nodetypes="ccsccccccccccc" />
    <path
       style="fill:#0e0e0e;fill-rule:evenodd;stroke:#000000;stroke-width:0.26458332px;stroke-linecap:butt;stroke-linejoin:miter;stroke-opacity:1;fill-opacity:1"
       d="m 150.28333,64.43125 c 0,0 9.01943,-2.451581 12.43542,18.520831 C 156.02871,99.397403 150.28333,64.43125 150.28333,64.43125 Z"
       id="path7657"
       inkscape:connector-curvature="0"
       sodipodi:nodetypes="cc" />
    <g
       id="g7698"
       transform="rotate(-4.6210497,204.53325,98.800029)">
      <path
         sodipodi:nodetypes="cccccccccccc"
         inkscape:connector-curvature="0"
         id="path7659"
         d="m 150.56591,75.596598 7.87135,-17.594791 -1.86285,-2.880059 3.11712,-6.051036 3.14744,1.191431 3.02843,-2.16092 8.98828,4.383288 c 0,0 1.80806,4.751957 -1.65308,6.529301 l -3.67172,2.768959 -2.28107,1.078513 -11.86602,22.86746 c 0,0 -6.09987,-3.483862 -4.81788,-10.132146 z"
         style="fill:#fddba2;fill-opacity:1;fill-rule:evenodd;stroke:#000000;stroke-width:0.26458332px;stroke-linecap:butt;stroke-linejoin:miter;stroke-opacity:1" />
      <path
         sodipodi:nodetypes="cccc"
         inkscape:connector-curvature="0"
         id="path7661"
         d="m 162.83897,50.262143 3.15545,3.19518 -1.49671,2.385383 c 0,0 -3.41437,-0.654812 -4.5369,-3.274052"
         style="fill:none;fill-rule:evenodd;stroke:#000000;stroke-width:0.26458332px;stroke-linecap:butt;stroke-linejoin:miter;stroke-opacity:1" />
      <path
         sodipodi:nodetypes="ccc"
         inkscape:connector-curvature="0"
         id="path7663"
         d="m 167.50521,48.977884 c -0.79375,4.497917 -1.85209,6.151562 -1.85209,6.151562 l -0.52398,-0.327423"
         style="fill:none;fill-rule:evenodd;stroke:#000000;stroke-width:0.26458332px;stroke-linecap:butt;stroke-linejoin:miter;stroke-opacity:1" />
      <path
         sodipodi:nodetypes="ccc"
         inkscape:connector-curvature="0"
         id="path7669"
         d="m 169.85313,50.066341 c 0,0 1.59025,2.572469 -1.21608,6.875507 l -2.98393,-1.812402"
         style="fill:none;fill-rule:evenodd;stroke:#000000;stroke-width:0.26458332px;stroke-linecap:butt;stroke-linejoin:miter;stroke-opacity:1" />
      <path
         sodipodi:nodetypes="ccc"
         inkscape:connector-curvature="0"
         id="path7671"
         d="m 172.94009,51.609821 c 0,0 1.87089,3.554685 -1.6838,6.828737 l -2.61924,-1.49671"
         style="fill:none;fill-rule:evenodd;stroke:#000000;stroke-width:0.26458332px;stroke-linecap:butt;stroke-linejoin:miter;stroke-opacity:1" />
      <path
         inkscape:connector-curvature="0"
         id="path7677"
         d="m 168.14594,60.70701 c 0,0 1.26285,-4.536901 -6.54811,-4.677217"
         style="fill:none;fill-rule:evenodd;stroke:#000000;stroke-width:0.26458332px;stroke-linecap:butt;stroke-linejoin:miter;stroke-opacity:1" />
      <path
         inkscape:connector-curvature="0"
         id="path7683"
         d="m 165.15252,52.603732 -1.12253,1.69549 c 0,0 -1.56141,-0.946822 -0.18709,-3.086962"
         style="fill:none;fill-rule:evenodd;stroke:#000000;stroke-width:0.26458332px;stroke-linecap:butt;stroke-linejoin:miter;stroke-opacity:1" />
      <path
         inkscape:connector-curvature="0"
         id="path7685"
         d="m 171.25629,58.438557 1.94631,0.575254"
         style="fill:none;fill-rule:evenodd;stroke:#000000;stroke-width:0.26458332px;stroke-linecap:butt;stroke-linejoin:miter;stroke-opacity:1" />
    </g>
    <path
       style="fill:#2d2d2d;fill-opacity:1;fill-rule:evenodd;stroke:#000000;stroke-width:0.26458332px;stroke-linecap:butt;stroke-linejoin:miter;stroke-opacity:1"
       d="m 120.38542,104.9125 17.63078,-4.7625 2.17252,-1.819216 10.09461,-33.899534 c 0,0 6.08542,23.018748 12.43542,18.520831 0,0 -5.82084,19.843769 -17.99167,30.691679 l -19.84375,8.20209"
       id="path7651"
       inkscape:connector-curvature="0"
       sodipodi:nodetypes="ccccccc" />
    <path
       style="fill:#2d2d2d;fill-opacity:1;fill-rule:evenodd;stroke:#000000;stroke-width:0.26458332px;stroke-linecap:butt;stroke-linejoin:miter;stroke-opacity:1"
       d="m 114.64277,84.302738 c 0,0 23.00116,73.670492 21.34947,101.638832 l -65.11677,8.4931 C 54.037489,113.61237 66.855817,92.276467 66.855817,92.276467 71.720123,84.418743 81.48612,82.302399 81.48612,82.302399"
       id="path7624"
       inkscape:connector-curvature="0"
       sodipodi:nodetypes="ccccc" />
    <path
       style="fill:#ffffff;fill-rule:evenodd;stroke:#000000;stroke-width:0.26458332px;stroke-linecap:butt;stroke-linejoin:miter;stroke-opacity:1;fill-opacity:1"
       d="m 82.417707,73.823956 -8.665104,3.571875 c 0,0 4.564063,19.182291 20.174479,23.415629 L 110.06667,89.698958 123.29583,98.5625 118.40104,84.539583"
       id="path7029"
       inkscape:connector-curvature="0" />
    <path
       style="fill:#ffdda4;fill-opacity:0.98832685;fill-rule:evenodd;stroke:#000000;stroke-width:0.10111545px;stroke-linecap:butt;stroke-linejoin:miter;stroke-opacity:1"
       d="m 93.190958,80.506977 c 0,0 1.452974,3.40982 2.896261,5.080122 z m -17.999754,-25.561502 1.63076,-7.68942 c 7.662225,-1.961103 9.435361,-9.073116 9.435361,-9.073116 1.155606,3.322364 -0.269876,5.862643 -0.269876,5.862643 4.189069,-2.02231 4.747846,-9.329459 4.747846,-9.329459 0.866705,3.322364 0,5.200226 0,5.200226 3.322364,-1.155605 4.911322,-6.355831 4.911322,-6.355831 1.300059,6.500279 8.465803,7.663146 8.465803,7.663146 -0.50045,-2.277668 1.72519,-3.459631 1.72519,-3.459631 0,0 -0.82202,2.57115 4.52265,4.882357 -0.9291,-2.218455 0.6905,-3.15948 0.41068,-2.652124 -0.56144,1.017952 3.741,2.737684 8.53383,4.220399 0.61256,7.081237 -0.4016,8.846692 -0.4016,8.846692 l 3.46682,5.922475 c 0,0 -6.06693,9.533743 -3.61127,28.312325 0,0 -12.13385,4.333521 -16.90073,3.755721 0,0 -3.166115,-2.546191 -5.770771,-5.464779 L 84.63758,79.41524 82.263506,73.245013 75.571359,55.852078"
       id="path10"
       inkscape:connector-curvature="0"
       sodipodi:nodetypes="cccccccccccccsccccccccc" />
    <path
       style="fill:#474746;fill-opacity:0.99533063;fill-rule:evenodd;stroke:#000000;stroke-width:0.10111545px;stroke-linecap:butt;stroke-linejoin:miter;stroke-opacity:1"
       d="m 123.37327,51.69778 c 0.30643,-10.929194 -18.28342,-0.306427 -18.28342,-0.306427 -0.91928,-3.268543 1.2257,-4.69853 1.2257,-4.69853 0,0 -1.12356,1.736413 -0.91928,2.859978 0,0 19.20271,-13.380611 17.977,2.144979 z"
       id="path6745"
       inkscape:connector-curvature="0" />
    <path
       style="fill:none;fill-rule:evenodd;stroke:#000000;stroke-width:0.10111545px;stroke-linecap:butt;stroke-linejoin:miter;stroke-opacity:1"
       d="m 100.99129,52.483552 c 5.63358,1.300058 5.48913,2.166759 5.48913,2.166759 l 4.47797,15.889571 -4.18907,3.466816 c 0,0 -1.73341,-3.755717 -10.833803,-5.778027 l 1.444507,-5.05577 c 0,0 2.889016,0.577804 4.044616,2.889011"
       id="path56"
       inkscape:connector-curvature="0" />
    <ellipse
       style="opacity:1;fill:none;fill-opacity:1;stroke:#000000;stroke-width:0;stroke-linecap:round;stroke-linejoin:round;stroke-miterlimit:4;stroke-dasharray:none;stroke-dashoffset:0;stroke-opacity:1;paint-order:stroke markers fill"
       id="path58"
       cx="-122.68819"
       cy="12.883495"
       rx="3.6112649"
       ry="2.3112087"
       transform="matrix(-0.93466364,-0.35553323,-0.35553323,0.93466364,0,0)" />
    <path
       style="opacity:0.98500001;fill:#ffffff;fill-opacity:1;stroke:#000000;stroke-width:0.19109091;stroke-linecap:round;stroke-linejoin:round;stroke-miterlimit:4;stroke-dasharray:none;stroke-dashoffset:0;stroke-opacity:1;paint-order:stroke markers fill"
       id="path876"
       transform="matrix(-0.99259195,-0.12149573,-0.13313274,0.99109822,0,0)"
       d="m -115.18238,36.859931 a 5.5595851,3.0297537 0 0 1 2.38905,3.33835 5.5595851,3.0297537 0 0 1 -5.12426,2.245315 5.5595851,3.0297537 0 0 1 -5.47006,-1.988334 5.5595851,3.0297537 0 0 1 1.83535,-3.440819"
       sodipodi:type="arc"
       sodipodi:start="5.2786125"
       sodipodi:end="4.0572028"
       sodipodi:ry="3.0297537"
       sodipodi:rx="5.5595851"
       sodipodi:cy="39.41684"
       sodipodi:cx="-118.16481"
       sodipodi:open="true" />
    <path
       style="fill:#ffdda4;fill-opacity:1;fill-rule:evenodd;stroke:#000000;stroke-width:0.10111545px;stroke-linecap:butt;stroke-linejoin:miter;stroke-opacity:1"
       d="m 117.15597,52.609763 -9.6592,-1.344924"
       id="path878"
       inkscape:connector-curvature="0"
       sodipodi:nodetypes="cc" />
    <path
       style="opacity:1;fill:#000000;fill-opacity:1;stroke:#000000;stroke-width:0.1146506;stroke-linecap:butt;stroke-linejoin:round;stroke-miterlimit:4;stroke-dasharray:none;stroke-dashoffset:0;stroke-opacity:1;paint-order:stroke markers fill"
       id="path880"
       sodipodi:type="arc"
       sodipodi:cx="-114.11773"
       sodipodi:cy="52.359074"
       sodipodi:rx="2.1757054"
       sodipodi:ry="2.5127878"
       sodipodi:start="6.112805"
       sodipodi:end="3.0730583"
       d="m -111.97353,51.933012 a 2.1757054,2.5127878 0 0 1 -0.81019,2.411098 2.1757054,2.5127878 0 0 1 -2.22339,0.308218 2.1757054,2.5127878 0 0 1 -1.28122,-2.121177"
       sodipodi:open="true"
       transform="scale(-1,1)" />
    <path
       style="fill:#6b6b69;fill-opacity:0.99533063;fill-rule:nonzero;stroke:#000000;stroke-width:0.08852261px;stroke-linecap:butt;stroke-linejoin:miter;stroke-opacity:1"
       d="m 100.84217,69.72425 c -0.51261,0.319966 -1.018212,0.567482 -2.31979,1.362328 -1.411223,0.833658 -1.885934,3.236108 -1.607207,3.769799 0,0 2.126034,-3.377564 6.531777,-3.865086"
       id="path6503"
       inkscape:connector-curvature="0"
       sodipodi:nodetypes="cccc" />
    <path
       style="fill:#6b6b69;fill-opacity:0.99533063;fill-rule:evenodd;stroke:#000000;stroke-width:0.10111545px;stroke-linecap:butt;stroke-linejoin:miter;stroke-opacity:1"
       d="m 109.37063,74.869577 c 0,0 -1.53213,0.102142 -1.83856,4.085681 0,0 -0.56178,0.970353 -5.97531,-3.166401 0,0 2.6557,-1.685348 7.81387,-0.91928 z"
       id="path6531"
       inkscape:connector-curvature="0" />
    <path
       style="fill:none;fill-rule:evenodd;stroke:#000000;stroke-width:0.10111545px;stroke-linecap:butt;stroke-linejoin:miter;stroke-opacity:1"
       d="m 75.191204,54.945475 c 0,0 1.625134,6.276814 5.266502,6.036942"
       id="path6533"
       inkscape:connector-curvature="0"
       sodipodi:nodetypes="cc" />
    <path
       style="fill:#6b6b69;fill-opacity:0.99533063;fill-rule:evenodd;stroke:#000000;stroke-width:0.10111545px;stroke-linecap:butt;stroke-linejoin:miter;stroke-opacity:1"
       d="m 110.26437,71.141392 1.48382,2.591363 c 0,0 -1.48382,-1.34012 -2.65845,-1.62101"
       id="path6643"
       inkscape:connector-curvature="0"
       sodipodi:nodetypes="ccc" />
    <path
       style="fill:#000000;fill-opacity:1;fill-rule:evenodd;stroke:#000000;stroke-width:0.10111545px;stroke-linecap:butt;stroke-linejoin:miter;stroke-opacity:1"
       d="m 105.92176,72.871148 c 0,0 -3.48633,0.122398 -7.023911,1.697295 0,0 3.484911,-1.699446 6.716991,-1.952235"
       id="path6651"
       inkscape:connector-curvature="0"
       sodipodi:nodetypes="ccc" />
    <path
       style="fill:none;fill-rule:evenodd;stroke:#000000;stroke-width:0.10111545px;stroke-linecap:butt;stroke-linejoin:miter;stroke-opacity:1"
       d="m 106.40819,52.808567 c 0.21261,8.419386 8.27493,6.710759 8.27493,6.710759"
       id="path6653"
       inkscape:connector-curvature="0"
       sodipodi:nodetypes="cc" />
    <path
       style="fill:none;fill-rule:evenodd;stroke:#000000;stroke-width:0.10127468;stroke-linecap:round;stroke-linejoin:miter;stroke-miterlimit:4;stroke-dasharray:none;stroke-opacity:1"
       d="m 95.877615,51.188642 c 0.153211,4.748771 -3.0898,7.627987 -8.196899,6.971192"
       id="path6655"
       inkscape:connector-curvature="0"
       sodipodi:nodetypes="cc" />
    <g
       transform="matrix(0.38216864,0,0,0.38216864,59.719898,5.8030518)"
       id="g6749"
       style="fill:#474746;fill-opacity:0.99533063">
      <path
         inkscape:connector-curvature="0"
         id="path6743"
         d="m 100.91964,106.68899 -1.889878,6.99256 c 0,0 -43.896913,-40.912393 -48.40679,-3.82525 0,0 4.327088,-20.72667 48.951016,7.99126 0,0 1.156662,-4.16601 1.345652,-11.15857 z"
         style="fill:#474746;fill-opacity:0.99533063;fill-rule:evenodd;stroke:#000000;stroke-width:0.26458332px;stroke-linecap:butt;stroke-linejoin:miter;stroke-opacity:1"
         sodipodi:nodetypes="ccccc" />
    </g>
    <path
       style="fill:#fddba2;fill-opacity:1;fill-rule:evenodd;stroke:none;stroke-width:0.10127468;stroke-linecap:butt;stroke-linejoin:miter;stroke-miterlimit:4;stroke-dasharray:none;stroke-opacity:1"
       d="m 115.33076,51.256409 c 0,0 1.11809,0.476468 1.76713,1.345191 l -9.60112,-1.336761 c 0,0 1.24596,-0.688392 2.38981,-0.828236 z"
       id="path6823"
       inkscape:connector-curvature="0"
       sodipodi:nodetypes="ccccc" />
    <g
       id="g7001"
       transform="rotate(16.710924,90.19254,52.739881)">
      <g
         id="g6994">
        <path
           style="opacity:1;fill:#ffffff;fill-opacity:1;stroke:#000000;stroke-width:0.13291726;stroke-linecap:round;stroke-linejoin:round;stroke-miterlimit:4;stroke-dasharray:none;stroke-dashoffset:0;stroke-opacity:1;paint-order:stroke markers fill"
           id="path876-3"
           transform="matrix(-0.989261,0.14615974,0.06565963,0.99784208,0,0)"
           sodipodi:type="arc"
           sodipodi:cx="-86.743568"
           sodipodi:cy="64.671471"
           sodipodi:rx="5.8823881"
           sodipodi:ry="3.345948"
           sodipodi:start="5.2841009"
           sodipodi:end="4.2041629"
           sodipodi:open="true"
           d="m -83.56077,61.857609 a 5.8823881,3.345948 0 0 1 2.43385,3.808177 5.8823881,3.345948 0 0 1 -5.803341,2.349947 5.8823881,3.345948 0 0 1 -5.529544,-2.554638 5.8823881,3.345948 0 0 1 2.8537,-3.712675" />
        <path
           style="fill:none;fill-rule:evenodd;stroke:#000000;stroke-width:0.11703341px;stroke-linecap:butt;stroke-linejoin:miter;stroke-opacity:1"
           d="m 95.191473,49.61945 -10.30666,1.335829"
           id="path878-6"
           inkscape:connector-curvature="0"
           sodipodi:nodetypes="cc" />
      </g>
      <path
         sodipodi:open="true"
         transform="matrix(-0.97371901,0.2277527,0.22748674,0.97378118,0,0)"
         d="m -76.294819,69.413026 a 2.2836254,2.638449 0 0 1 -2.075805,2.799213 2.2836254,2.638449 0 0 1 -2.472045,-2.33025"
         sodipodi:end="3.0285001"
         sodipodi:start="6.2182493"
         sodipodi:ry="2.638449"
         sodipodi:rx="2.2836254"
         sodipodi:cy="69.584236"
         sodipodi:cx="-78.573631"
         sodipodi:type="arc"
         id="path880-7"
         style="opacity:1;fill:#000000;fill-opacity:1;stroke:#000000;stroke-width:0.12036082;stroke-linecap:square;stroke-linejoin:round;stroke-miterlimit:4;stroke-dasharray:none;stroke-dashoffset:0;stroke-opacity:1;paint-order:stroke markers fill" />
      <path
         sodipodi:nodetypes="ccccc"
         inkscape:connector-curvature="0"
         id="path6825"
         d="m 92.340697,48.482617 c 0,0 1.740694,0.119898 2.850776,1.136833 l -10.303806,1.335405 c 0,0 0.4116,-0.728318 2.159028,-1.640574 z"
         style="fill:#fddba2;fill-opacity:1;fill-rule:evenodd;stroke:none;stroke-width:0.10111545px;stroke-linecap:butt;stroke-linejoin:miter;stroke-opacity:1" />
    </g>
    <path
       style="fill:none;fill-rule:evenodd;stroke:#000000;stroke-width:0.26458332px;stroke-linecap:butt;stroke-linejoin:miter;stroke-opacity:1"
       d="m 86.254166,192.48958 c 0,0 -17.991667,-60.58958 -10.847917,-83.60833"
       id="path7628"
       inkscape:connector-curvature="0"
       sodipodi:nodetypes="cc" />
  </g>
</svg>
