<?xml version="1.0" encoding="UTF-8" standalone="no"?>
<!-- Created with Inkscape (http://www.inkscape.org/) -->

<svg
   xmlns:osb="http://www.openswatchbook.org/uri/2009/osb"
   xmlns:dc="http://purl.org/dc/elements/1.1/"
   xmlns:cc="http://creativecommons.org/ns#"
   xmlns:rdf="http://www.w3.org/1999/02/22-rdf-syntax-ns#"
   xmlns:svg="http://www.w3.org/2000/svg"
   xmlns="http://www.w3.org/2000/svg"
   xmlns:sodipodi="http://sodipodi.sourceforge.net/DTD/sodipodi-0.dtd"
   xmlns:inkscape="http://www.inkscape.org/namespaces/inkscape"
   width="210mm"
   height="297mm"
   viewBox="0 0 210 297"
   version="1.1"
   id="svg8"
   sodipodi:docname="Descartes.svg"
   inkscape:version="0.92.1 r15371">
  <defs
     id="defs2">
    <linearGradient
       id="linearGradient6490"
       osb:paint="solid">
      <stop
         style="stop-color:#000000;stop-opacity:1;"
         offset="0"
         id="stop6488" />
    </linearGradient>
  </defs>
  <sodipodi:namedview
     id="base"
     pagecolor="#ffffff"
     bordercolor="#666666"
     borderopacity="1.0"
     inkscape:pageopacity="0.0"
     inkscape:pageshadow="2"
     inkscape:zoom="0.70710678"
     inkscape:cx="487.61874"
     inkscape:cy="572.4465"
     inkscape:document-units="mm"
     inkscape:current-layer="layer1"
     showgrid="false"
     inkscape:snap-global="true"
     inkscape:window-width="1920"
     inkscape:window-height="983"
     inkscape:window-x="0"
     inkscape:window-y="27"
     inkscape:window-maximized="1"
     inkscape:snap-intersection-paths="true" />
  <metadata
     id="metadata5">
    <rdf:RDF>
      <cc:Work
         rdf:about="">
        <dc:format>image/svg+xml</dc:format>
        <dc:type
           rdf:resource="http://purl.org/dc/dcmitype/StillImage" />
      </cc:Work>
    </rdf:RDF>
  </metadata>
  <g
     inkscape:label="Camada 1"
     inkscape:groupmode="layer"
     id="layer1">
    <path
       style="fill:#030303;fill-opacity:1;fill-rule:evenodd;stroke:#000000;stroke-width:0.26458332px;stroke-linecap:butt;stroke-linejoin:miter;stroke-opacity:1"
       d="m 193.90179,153.36905 c 10.9613,4.15773 10.58333,3.40178 10.58333,3.40178 2.65203,-1.99189 -0.17261,-8.33525 -10.91573,-30.2457 -15.77933,-32.18172 -20.05933,-56.715412 -20.05933,-56.715412 0,0 -6.42166,-27.574564 -38.50575,-15.188104 0,0 -31.8472,-22.658902 -63.188835,14.458741 -27.976961,39.159855 -7.562477,57.132935 -45.112125,97.685545 -6.425596,7.55952 -7.945368,17.97843 -7.945368,17.97843 0,0 6.719727,-8.67772 10.499489,-10.94558 0,0 -7.017117,17.80287 13.015621,33.2999 0,0 -7.227405,-23.9422 3.35593,-10.71303 -0.01107,-0.005 70.717868,104.79689 145.672518,-3.70705 0,0 7.91471,0.79014 3.73417,12.85119 0,0 24.56846,-8.31547 -1.13392,-52.16071"
       id="path46"
       inkscape:connector-curvature="0"
       sodipodi:nodetypes="ccsccccccccccc" />
    <path
       style="fill:#ffdda4;fill-opacity:0.98832685;fill-rule:evenodd;stroke:#000000;stroke-width:0.26458332px;stroke-linecap:butt;stroke-linejoin:miter;stroke-opacity:1"
       d="m 130.40178,190.41071 c 0,0 -3.80192,8.92229 -7.57849,13.29288 z m 47.09898,-66.8854 -4.26712,-20.12049 c -20.04933,-5.13151 -24.689,-23.741131 -24.689,-23.741131 -3.02381,8.693454 0.70617,15.340463 0.70617,15.340463 -10.96131,-5.291669 -12.42343,-24.41189 -12.42343,-24.41189 -2.26786,8.693452 0,13.607143 0,13.607143 -8.69345,-3.02381 -12.85119,-16.630953 -12.85119,-16.630953 -3.40179,17.008929 -22.152,20.051733 -22.152,20.051733 1.30949,-5.959841 -4.514225,-9.052626 -4.514225,-9.052626 0,0 2.150952,6.727785 -11.834163,12.775403 2.431113,-5.804909 -1.806805,-8.267244 -1.074606,-6.939677 1.469081,2.663627 -9.788879,7.163559 -22.33002,11.043293 -1.602855,18.529092 1.050847,23.148662 1.050847,23.148662 l -9.07143,15.49702 c 0,0 15.875001,24.94643 9.449407,74.08333 0,0 31.749996,11.33929 44.22322,9.82739 0,0 8.28461,-6.66248 15.10007,-14.29939 l 29.95965,-16.14957 6.21211,-16.1453 17.51098,-45.51115"
       id="path10"
       inkscape:connector-curvature="0"
       sodipodi:nodetypes="cccccccccccccsccccccccc" />
    <path
       style="fill:#474746;fill-opacity:0.99533063;fill-rule:evenodd;stroke:#000000;stroke-width:0.26458332px;stroke-linecap:butt;stroke-linejoin:miter;stroke-opacity:1"
       d="m 164.10349,107.23863 c 0.80181,-28.597834 -47.84125,-0.80181 -47.84125,-0.80181 -2.40542,-8.55262 3.20724,-12.294392 3.20724,-12.294392 0,0 -2.93997,4.543582 -2.40543,7.483552 0,0 50.24667,-35.012317 47.03944,5.61265 z"
       id="path6745"
       inkscape:connector-curvature="0" />
    <path
       style="fill:none;fill-rule:evenodd;stroke:#000000;stroke-width:0.26458332px;stroke-linecap:butt;stroke-linejoin:miter;stroke-opacity:1"
       d="m 109.99107,117.08333 c -14.74107,3.40179 -14.3631,5.66964 -14.3631,5.66964 l -11.717257,41.57738 10.961307,9.07143 c 0,0 4.53572,-9.82738 28.34822,-15.11905 l -3.77976,-13.22916 c 0,0 -7.55953,1.51191 -10.58334,7.55952"
       id="path56"
       inkscape:connector-curvature="0" />
    <ellipse
       style="opacity:1;fill:none;stroke:#000000;stroke-width:0;stroke-linecap:round;stroke-linejoin:round;stroke-miterlimit:4;stroke-dasharray:none;stroke-dashoffset:0;stroke-opacity:1;paint-order:stroke markers fill;fill-opacity:1"
       id="path58"
       cx="35.964535"
       cy="147.84505"
       rx="9.4494019"
       ry="6.0476146"
       transform="rotate(-20.826127)" />
    <path
       style="opacity:0.98500001;fill:#ffffff;fill-opacity:1;stroke:#000000;stroke-width:0.50001721;stroke-linecap:round;stroke-linejoin:round;stroke-miterlimit:4;stroke-dasharray:none;stroke-dashoffset:0;stroke-opacity:1;paint-order:stroke markers fill"
       id="path876"
       transform="matrix(0.99259195,-0.12149573,0.13313274,0.99109822,0,0)"
       d="m 72.247864,121.8233 a 14.547466,7.9277925 0 0 1 6.251292,8.73528 14.547466,7.9277925 0 0 1 -13.408385,5.8752 14.547466,7.9277925 0 0 1 -14.3132,-5.20277 14.547466,7.9277925 0 0 1 4.802451,-9.00341"
       sodipodi:type="arc"
       sodipodi:start="5.2786125"
       sodipodi:end="4.0572028"
       sodipodi:ry="7.9277925"
       sodipodi:rx="14.547466"
       sodipodi:cy="128.51382"
       sodipodi:cx="64.443893"
       sodipodi:open="true" />
    <path
       style="fill:#ffdda4;fill-opacity:1;fill-rule:evenodd;stroke:#000000;stroke-width:0.26458332px;stroke-linecap:butt;stroke-linejoin:miter;stroke-opacity:1"
       d="m 67.69383,117.41358 25.27472,-3.51919"
       id="path878"
       inkscape:connector-curvature="0"
       sodipodi:nodetypes="cc" />
    <path
       style="opacity:1;fill:#000000;fill-opacity:1;stroke:#000000;stroke-width:0.30000001;stroke-linecap:butt;stroke-linejoin:round;stroke-miterlimit:4;stroke-dasharray:none;stroke-dashoffset:0;stroke-opacity:1;paint-order:stroke markers fill"
       id="path880"
       sodipodi:type="arc"
       sodipodi:cx="85.858818"
       sodipodi:cy="115.21707"
       sodipodi:rx="5.6930509"
       sodipodi:ry="6.5750756"
       sodipodi:start="6.112805"
       sodipodi:end="3.0730583"
       d="m 91.469436,114.10222 a 5.6930509,6.5750756 0 0 1 -2.119976,6.30899 5.6930509,6.5750756 0 0 1 -5.817842,0.8065 5.6930509,6.5750756 0 0 1 -3.352486,-5.55037"
       sodipodi:open="true" />
    <path
       style="opacity:1;fill:#ffffff;fill-opacity:1;stroke:#000000;stroke-width:0.34779739;stroke-linecap:round;stroke-linejoin:round;stroke-miterlimit:4;stroke-dasharray:none;stroke-dashoffset:0;stroke-opacity:1;paint-order:stroke markers fill"
       id="path876-3"
       transform="matrix(0.989261,0.14615975,-0.06565963,0.99784208,0,0)"
       sodipodi:type="arc"
       sodipodi:cx="146.3587"
       sodipodi:cy="94.246323"
       sodipodi:rx="15.392127"
       sodipodi:ry="8.7551613"
       sodipodi:start="5.2841009"
       sodipodi:end="4.2041629"
       sodipodi:open="true"
       d="m 154.68696,86.883443 a 15.392127,8.7551613 0 0 1 6.36852,9.964651 15.392127,8.7551613 0 0 1 -15.18529,6.148976 15.392127,8.7551613 0 0 1 -14.46885,-6.68458 15.392127,8.7551613 0 0 1 7.46712,-9.714756" />
    <path
       style="fill:none;fill-rule:evenodd;stroke:#000000;stroke-width:0.30623499px;stroke-linecap:butt;stroke-linejoin:miter;stroke-opacity:1"
       d="m 125.16714,109.58899 26.96888,3.49539"
       id="path878-6"
       inkscape:connector-curvature="0"
       sodipodi:nodetypes="cc" />
    <path
       style="opacity:1;fill:#000000;fill-opacity:1;stroke:#000000;stroke-width:0.31494164;stroke-linecap:square;stroke-linejoin:round;stroke-miterlimit:4;stroke-dasharray:none;stroke-dashoffset:0;stroke-opacity:1;paint-order:stroke markers fill"
       id="path880-7"
       sodipodi:type="arc"
       sodipodi:cx="165.25041"
       sodipodi:cy="76.254105"
       sodipodi:rx="5.9754391"
       sodipodi:ry="6.9038863"
       sodipodi:start="6.2182493"
       sodipodi:end="3.0285001"
       d="m 171.21326,75.806109 a 5.9754391,6.9038863 0 0 1 -5.43165,7.324548 5.9754391,6.9038863 0 0 1 -6.46847,-6.097438"
       transform="matrix(0.97371901,0.22775269,-0.22748675,0.97378118,0,0)"
       sodipodi:open="true" />
    <path
       style="fill:#6b6b69;fill-opacity:0.99533063;fill-rule:nonzero;stroke:#000000;stroke-width:0.23163231px;stroke-linecap:butt;stroke-linejoin:miter;stroke-opacity:1"
       d="m 110.38127,162.19613 c 1.34131,0.83724 2.6643,1.4849 6.07007,3.56473 3.69267,2.18139 4.93482,8.46775 4.20549,9.86423 0,0 -5.56308,-8.83789 -17.09135,-10.11356"
       id="path6503"
       inkscape:connector-curvature="0"
       sodipodi:nodetypes="cccc" />
    <path
       style="fill:#6b6b69;fill-rule:evenodd;stroke:#000000;stroke-width:0.26458332px;stroke-linecap:butt;stroke-linejoin:miter;stroke-opacity:1;fill-opacity:0.99533063"
       d="m 88.065307,175.65963 c 0,0 4.009044,0.26727 4.810853,10.69078 0,0 1.469983,2.53907 15.63527,-8.28535 0,0 -6.94901,-4.40996 -20.446123,-2.40543 z"
       id="path6531"
       inkscape:connector-curvature="0" />
    <path
       style="fill:none;fill-rule:evenodd;stroke:#000000;stroke-width:0.26458332px;stroke-linecap:butt;stroke-linejoin:miter;stroke-opacity:1"
       d="m 177.50076,123.52531 c 0,0 -4.2524,16.4242 -13.78057,15.79654"
       id="path6533"
       inkscape:connector-curvature="0"
       sodipodi:nodetypes="cc" />
    <path
       style="fill:#6b6b69;fill-rule:evenodd;stroke:#000000;stroke-width:0.26458332px;stroke-linecap:butt;stroke-linejoin:miter;stroke-opacity:1;fill-opacity:0.99533063"
       d="m 85.7267,165.90429 -3.882636,6.78068 c 0,0 3.882636,-3.50662 6.956235,-4.24161"
       id="path6643"
       inkscape:connector-curvature="0"
       sodipodi:nodetypes="ccc" />
    <path
       style="fill:#000000;fill-opacity:1;fill-rule:evenodd;stroke:#000000;stroke-width:0.26458332px;stroke-linecap:butt;stroke-linejoin:miter;stroke-opacity:1"
       d="m 97.089784,170.43045 c 0,0 9.122476,0.32027 18.379086,4.44122 0,0 -9.11877,-4.44685 -17.575987,-5.10831"
       id="path6651"
       inkscape:connector-curvature="0"
       sodipodi:nodetypes="ccc" />
    <path
       style="fill:none;fill-rule:evenodd;stroke:#000000;stroke-width:0.26458332px;stroke-linecap:butt;stroke-linejoin:miter;stroke-opacity:1"
       d="m 95.816964,117.93378 c -0.556317,22.03055 -21.652569,17.55968 -21.652569,17.55968"
       id="path6653"
       inkscape:connector-curvature="0"
       sodipodi:nodetypes="cc" />
    <path
       style="fill:none;fill-rule:evenodd;stroke:#000000;stroke-width:0.265;stroke-linecap:round;stroke-linejoin:miter;stroke-opacity:1;stroke-miterlimit:4;stroke-dasharray:none"
       d="m 123.37175,113.69501 c -0.4009,12.42585 8.08491,19.95974 21.44838,18.24114"
       id="path6655"
       inkscape:connector-curvature="0"
       sodipodi:nodetypes="cc" />
    <g
       id="g6749"
       style="fill:#474746;fill-opacity:0.99533063">
      <path
         inkscape:connector-curvature="0"
         id="path6743"
         d="m 100.91964,106.68899 -1.889878,6.99256 c 0,0 -43.896913,-40.912393 -48.40679,-3.82525 0,0 4.327088,-20.72667 48.951016,7.99126 0,0 1.156662,-4.16601 1.345652,-11.15857 z"
         style="fill:#474746;fill-rule:evenodd;stroke:#000000;stroke-width:0.26458332px;stroke-linecap:butt;stroke-linejoin:miter;stroke-opacity:1;fill-opacity:0.99533063"
         sodipodi:nodetypes="ccccc" />
    </g>
    <path
       style="fill:#fddba2;fill-opacity:1;fill-rule:evenodd;stroke:none;stroke-width:0.26499999;stroke-linecap:butt;stroke-linejoin:miter;stroke-miterlimit:4;stroke-dasharray:none;stroke-opacity:1"
       d="m 72.469765,113.87233 c 0,0 -2.925645,1.24675 -4.623947,3.51989 l 25.122732,-3.49783 c 0,0 -3.260245,-1.80128 -6.253308,-2.1672 z"
       id="path6823"
       inkscape:connector-curvature="0"
       sodipodi:nodetypes="ccccc" />
    <path
       style="fill:#fddba2;fill-opacity:1;fill-rule:evenodd;stroke:none;stroke-width:0.26458332px;stroke-linecap:butt;stroke-linejoin:miter;stroke-opacity:1"
       d="m 132.62661,106.6143 c 0,0 -4.55478,0.31373 -7.45947,2.97469 l 26.96141,3.49428 c 0,0 -1.07701,-1.90575 -5.64941,-4.2928 z"
       id="path6825"
       inkscape:connector-curvature="0"
       sodipodi:nodetypes="ccccc" />
  </g>
</svg>
