
<svg xmlns="http://www.w3.org/2000/svg" viewBox="0 0 400 400">
  <path
       style="fill:none;fill-rule:evenodd;stroke:#000000;stroke-width:0.26458332px;stroke-linecap:butt;stroke-linejoin:miter;stroke-opacity:1"
       d="m 107.34524,83.443452 c 1.61316,0.04591 -0.40329,1.405932 0,1.889879 2.46609,2.959314 1.74127,1.23389 5.29166,4.157739 0.76888,0.63319 4.27404,4.375801 5.29167,5.291667 0.46824,0.42142 0.94845,0.852201 1.5119,1.133927 0.22539,0.112691 0.50397,0 0.75596,0 0.88194,0 1.76389,0 2.64583,0 0.12599,0 0.28889,0.08909 0.37798,0 0.0891,-0.08909 -0.0564,-0.265284 0,-0.377976 0.23353,-0.467066 0.36493,-0.377975 0.75595,-0.377975 0.12599,0 0.25198,0 0.37798,0 2.64583,0 5.29166,0 7.93749,0 1.13393,0 2.26786,0 3.40179,0 0.37798,0 0.75887,-0.04688 1.13393,0 0.62996,0.125991 1.25992,0.251983 1.88988,0.377975 0.25199,0.125992 0.48264,0.309647 0.75595,0.377976 0.24446,0.06112 0.50397,0 0.75595,0 0.88195,0 1.76389,0 2.64584,0 0.37797,0 0.76329,-0.07413 1.13393,0 1.1104,0.222083 0.66955,0.58316 1.13393,1.511906 0.23353,0.467066 0.36492,0.377976 0.75595,0.377976 0.12599,0 0.30238,-0.100793 0.37797,0 0.33808,0.450762 0.55812,0.984327 0.75596,1.511906 0.1824,0.486402 0.2761,1.002518 0.37797,1.511898 0.0247,0.12355 -0.0891,0.28889 0,0.37798 0.18163,0.18163 0.68394,-0.21606 0.75595,0 0.36733,1.10198 0.47423,2.27488 0.75596,3.40179 0.22246,0.88985 0.55697,1.75044 0.75595,2.64583 0.0547,0.24598 -0.17818,0.57777 0,0.75595 0.17818,0.17818 0.50397,0 0.75595,0 0.50397,0 1.00794,0 1.51191,0 1.88988,0 3.77976,0 5.66964,0 0.62996,0 1.25992,0 1.88988,0 0.12599,0 0.26529,-0.0563 0.37798,0 0.94258,0.47129 0.2504,2.07175 0.37797,2.64584 0.0985,0.44345 0.5528,0.72761 0.75596,1.13392 0.0563,0.1127 -0.0891,0.28889 0,0.37798 0.0891,0.0891 0.25198,0 0.37797,0 0.25199,0 0.54629,-0.13977 0.75595,0 0.60336,0.40224 0.37798,1.91332 0.37798,2.26786 0,0.50397 0,1.00794 0,1.5119 0,3.2758 0,6.55159 0,9.82738 0,1.51191 0.0943,3.02676 0,4.53572 -0.10977,1.75636 -0.0182,1.5119 -1.13393,1.5119 -0.12599,0 -0.32163,-0.11269 -0.37797,0 -0.1127,0.22539 0,0.50397 0,0.75595 0,0.75596 0,1.51191 0,2.26786 0,0.12599 0.0891,0.28889 0,0.37798 -0.0891,0.0891 -0.34742,-0.12223 -0.37798,0 -0.12223,0.48892 0,1.00794 0,1.5119 0,0.88195 0,1.76389 0,2.64584 0,5.79563 0,11.59127 0,17.3869 0,1.51191 0,3.02381 0,4.53572 0,0.74215 0.0917,2.01963 -0.37798,2.64583 -0.68151,0.90869 -3.12566,2.33621 -4.15774,2.64583 -0.48271,0.14482 -1.01479,-0.0829 -1.5119,0 -0.27789,0.0463 -0.50397,0.25199 -0.75595,0.37798 -0.25199,0.12599 -0.55674,0.17876 -0.75595,0.37797 -0.19921,0.19922 -0.27335,0.49438 -0.37798,0.75596 -0.44427,1.11067 -0.13467,1.4308 -1.51191,1.88988 -0.35858,0.11952 -0.75595,0 -1.13392,0 -0.37798,0 -0.75596,0 -1.13393,0 -0.37798,0 -0.76724,-0.0917 -1.13393,0 -0.17286,0.0432 -0.23543,0.27107 -0.37798,0.37797 -0.53369,0.40027 -2.70366,1.75649 -3.02381,1.88988 -2.47885,1.03286 -2.97708,0.75596 -5.66964,0.75596 -2.01587,0 -4.03175,0 -6.04762,0 -1.5119,0 -3.02381,0 -4.53571,0 -0.37798,0 -0.75596,0 -1.13393,0 -0.12599,0 -0.33814,-0.11953 -0.37798,0 -0.32696,0.98088 0.58178,1.28895 -0.75595,1.5119 -0.49711,0.0829 -1.00794,0 -1.5119,0 -0.75596,0 -1.51191,0 -2.26786,0 -3.1498,0 -6.2996,0 -9.44941,0 -2.14186,0 -4.28373,0 -6.42559,0 -0.50397,0 -1.00794,0 -1.51191,0 -0.25198,0 -0.5169,0.0797 -0.75595,0 -0.53454,-0.17818 -1.00794,-0.50397 -1.5119,-0.75595 -0.50397,-0.25198 -1.02269,-0.4764 -1.51191,-0.75595 -0.39442,-0.22538 -0.72761,-0.5528 -1.133926,-0.75596 -1.14181,-0.5709 -2.124284,-0.40754 -3.401788,-0.75595 -0.654579,-0.17852 -1.240007,-0.56099 -1.889879,-0.75595 -0.615344,-0.1846 -1.280414,-0.17482 -1.889882,-0.37798 -0.534537,-0.17818 -0.972214,-0.59404 -1.511905,-0.75595 -0.734058,-0.22022 -1.507395,-0.28292 -2.267855,-0.37798 -0.250039,-0.0312 -0.503971,0 -0.755954,0 -0.251984,0 -0.530569,0.1127 -0.755952,0 -0.318738,-0.15936 -0.503968,-0.50396 -0.755952,-0.75595 -0.615317,-0.61531 -0.705887,-0.86525 -1.511906,-1.13393 -0.119525,-0.0398 -0.251983,0 -0.377975,0 -0.251984,0 -0.503968,0 -0.755952,0 -0.377976,0 -0.770496,0.10384 -1.13393,0 -2.96015,-0.84575 -0.203049,-0.53479 -2.645833,-1.5119 -0.233961,-0.0936 -0.503968,0 -0.755952,0 -0.251984,0 -0.503968,0 -0.755952,0 -0.755954,0 -1.511905,0 -2.267857,0 -0.503968,0 -1.033799,0.15937 -1.511906,0 -0.338071,-0.11269 -0.459444,-0.55828 -0.755952,-0.75595 -0.10483,-0.0699 -0.251983,0 -0.377975,0 -0.125992,0 -0.251984,0 -0.377976,0 -0.251984,0 -0.530572,0.11269 -0.755954,0 -1.380599,-0.6903 -0.376894,-0.75271 -0.755952,-1.88988 -0.03984,-0.11953 -0.288885,0.0891 -0.377976,0 -0.08909,-0.0891 0.03984,-0.25845 0,-0.37798 -0.08909,-0.26727 -0.322725,-0.4797 -0.377976,-0.75595 -0.07413,-0.37064 0.302382,-0.90715 0,-1.13393 -0.403174,-0.30238 -1.007938,0 -1.511906,0 -1.12269,0 -4.694906,0.10939 -5.669642,-0.37798 -1.297099,-0.64855 -3.671353,-3.41761 -4.913691,-4.53571 -0.599646,-0.53968 -1.282745,-0.98066 -1.889879,-1.5119 -0.402283,-0.352 -0.723286,-0.79173 -1.13393,-1.13393 -0.34898,-0.29082 -0.81271,-0.43474 -1.133927,-0.75596 -0.32122,-0.32121 -0.503968,-0.75595 -0.755955,-1.13393 -0.953624,-1.43043 -0.434734,-0.81271 -1.511903,-1.88988 -0.125992,-0.12599 -0.208941,-0.32163 -0.377976,-0.37797 -0.239053,-0.0797 -0.503967,0 -0.755954,0 -0.251984,0 -0.503968,0 -0.755951,0 -1.133928,0 -2.267858,0 -3.401785,0 -0.251984,0 -0.503968,0 -0.755952,0 -0.125992,0 -0.265287,0.0563 -0.377978,0 -0.556155,-0.27808 -0.377976,-0.59306 -0.377976,-1.13393 0,-0.12599 0.08909,-0.28889 0,-0.37798 -0.08909,-0.0891 -0.288886,0.0891 -0.377976,0 -0.08909,-0.0891 0.08909,-0.28888 0,-0.37797 -0.08909,-0.0891 -0.251984,0 -0.377976,0 -0.377976,0 -0.755952,0 -1.133927,0 -0.503971,0 -1.029192,0.14481 -1.511906,0 -0.809535,-0.24286 -1.600713,-0.61504 -2.267858,-1.13393 -0.49726,-0.38676 -0.740394,-1.01999 -1.133927,-1.51191 -0.111308,-0.13913 -0.251984,-0.25198 -0.377976,-0.37797 -0.125992,-0.12599 -0.218609,-0.29829 -0.377978,-0.37798 -0.112689,-0.0563 -0.258448,0.0398 -0.377976,0 -0.267269,-0.0891 -0.503968,-0.25198 -0.755952,-0.37798 -0.251984,-0.12599 -0.586917,-0.15259 -0.755951,-0.37797 -0.457661,-0.61022 -0.377976,-1.21792 -0.377976,-1.88988 0,-0.12599 0.05634,-0.26529 0,-0.37798 -0.480134,-0.96027 -0.45175,0.38709 -0.755954,-1.13393 -0.07413,-0.37063 0,-0.75595 0,-1.13392 0,-0.37798 0,-0.75596 0,-1.13393 0,-1.13393 0,-2.26786 0,-3.40179 0,-0.88194 0,-1.76389 0,-2.64583 0,-0.25199 0,-0.50397 0,-0.75595 0,-0.126 -0.03984,-0.25845 0,-0.37798 0.01516,-0.0455 0.748297,-1.48128 0.755954,-1.51191 0.06111,-0.24446 0,-0.50396 0,-0.75595 0,-0.25198 -0.112692,-0.53057 0,-0.75595 0.159366,-0.31874 0.503968,-0.50397 0.755951,-0.75595 0.503968,-0.50397 1.007936,-1.00794 1.511904,-1.51191 1.264192,-1.26419 0.319876,-0.22104 1.511905,-1.88988 0.285351,-0.39949 1.592956,-2.05198 1.889882,-2.64583 0.178179,-0.35636 0.22103,-0.76772 0.377976,-1.13393 0.221954,-0.5179 0.503968,-1.00794 0.755952,-1.51191 0.125992,-0.25198 0.273346,-0.49437 0.377975,-0.75595 0.147971,-0.36992 0.230008,-0.764 0.377976,-1.13393 0.104632,-0.26157 0.251987,-0.50396 0.377979,-0.75595 0.125992,-0.25198 0.221702,-0.52154 0.377975,-0.75595 0.09884,-0.14826 0.279139,-0.22972 0.377976,-0.37798 0.312547,-0.46882 0.443405,-1.04308 0.755952,-1.5119 0.197673,-0.29651 0.558281,-0.45945 0.755952,-0.75596 0.156276,-0.23441 0.178765,-0.55673 0.377978,-0.75595 0.19921,-0.19921 0.586915,-0.15259 0.755952,-0.37797 0.239053,-0.31874 0.251983,-0.75596 0.377975,-1.13393 0.125992,-0.37798 0.17299,-0.79229 0.377976,-1.13393 0.183346,-0.30558 0.503968,-0.50397 0.755952,-0.75595 0.251986,-0.25199 0.470866,-0.54214 0.755954,-0.75595 0.22538,-0.16904 0.514374,-0.23303 0.755952,-0.37798 0.389533,-0.23372 0.755951,-0.50397 1.133927,-0.75595 0.377979,-0.25199 0.727618,-0.5528 1.13393,-0.75596 0.35636,-0.17818 0.750837,-0.26852 1.133928,-0.37797 1.254429,-0.35841 1.513011,-0.30283 2.645833,-0.75596 0.261578,-0.10463 0.503968,-0.25198 0.755954,-0.37797 0.251984,-0.12599 0.530569,-0.20894 0.755952,-0.37798 0.570174,-0.42763 0.941729,-1.08427 1.511903,-1.5119 0.225383,-0.16904 0.494377,-0.27335 0.755954,-0.37798 0.02334,-0.009 2.258457,-0.75125 2.267858,-0.75595 0.953624,-0.476812 1.186751,-0.808777 1.889879,-1.511904 0.251984,-0.251984 0.503968,-0.503971 0.755954,-0.755954 0.251984,-0.251984 0.437213,-0.596583 0.755952,-0.755952 0.22538,-0.112691 0.546288,0.139777 0.755951,0 0.234411,-0.156273 0.178766,-0.556742 0.377976,-0.755952 0.199213,-0.199212 0.521541,-0.221702 0.755954,-0.377975 0.519981,-0.346658 0.388739,-0.583113 0.755952,-1.13393 0.09883,-0.148254 0.251984,-0.251984 0.377976,-0.377976 0.125992,-0.125992 0.218606,-0.298292 0.377976,-0.377976 0.112691,-0.05635 0.251983,0 0.377975,0 0.125992,0 0.251984,0 0.377976,0 0.503971,0 1.007938,0 1.511906,0 0.755952,0 1.511906,0 2.267858,0 0.251983,0 0.503967,0 0.755951,0 0.251984,0 0.508863,0.04942 0.755952,0 0.390686,-0.07814 0.755954,-0.251984 1.13393,-0.377976 0.377976,-0.125992 0.777568,-0.199797 1.133927,-0.377976 0.406313,-0.203157 0.78495,-0.465137 1.13393,-0.755954 0.961594,-0.801328 1.108605,-1.393058 2.267858,-1.889879 0.477475,-0.204634 1.034428,-0.173344 1.511903,-0.377978 0.417542,-0.178946 0.727617,-0.552794 1.13393,-0.755952 0.35636,-0.178178 0.792284,-0.17299 1.133928,-0.377976 0.305575,-0.183346 0.503967,-0.503968 0.755951,-0.755952 0.251984,-0.251983 0.503968,-0.503967 0.755954,-0.755954 0.251984,-0.251984 0.533337,-0.477681 0.755952,-0.755951 0.671759,-0.839698 0.498771,-1.258621 1.511903,-1.511904 0.244462,-0.06112 0.503971,0 0.755955,0 0.125992,0 0.251983,0 0.377975,0 0.62996,0 1.25992,0 1.889882,0 2.141863,0 4.283729,0 6.425594,0 3.023808,0 6.047618,0 9.071428,0 0.25199,0 0.50397,0 0.75595,0 0.126,0 0.28889,0.08909 0.37798,0 0.19921,-0.199212 0.2217,-0.521541 0.37798,-0.755954 -0.0377,-0.748792 0.55674,-0.178763 0.75595,-0.377976 0.0891,-0.08909 0,-0.251984 0,-0.377975 0,-0.125992 0,-0.251984 0,-0.377976 0,-0.125992 0.0891,-0.288888 0,-0.377976 -0.0891,-0.08909 -0.25199,0 -0.37798,0 -0.50397,0 -1.00793,0 -1.5119,0 z"/>
</svg>
